# xmcd
#
# Track frame offsets: 
#        150
#        12407
#        23533
#        35843
#        47219
#        58594
#        70203
#        83780
#        94911
#        108429
#        122181
#        134903
#        149041
#        161868
#        175971
#        187641
#        201346
#        212020
#        222722
#        233459
#        243302
#        254833
#        266465
#        277515
#        282393
#        292710
#        300569
#
# Disc length: 4218 seconds
#
# Revision: 0
# Processed by: cddbd v1.5.2PL0 Copyright (c) Steve Scherf et al.
# Submitted via: ExactAudioCopy v1.0b3
#
DISCID=9d10781b
DTITLE=Gene Autry - God Bless America
DYEAR=2002
DGENRE=Western
TTITLE0=Good Old Fashioned Hoedown  (1940)
TTITLE1=You Are The Light Of My Life  (1941)
TTITLE2=Darlin' What More Can I Do  (1944)
TTITLE3=Was Yesterday A Dream  (1945)
TTITLE4=I'm Learning To Live Without You  (1945)
TTITLE5=When The Snowbirds Cross The Rockies  (1947)
TTITLE6=I'm A Fool To Care  (1947)
TTITLE7=Texans Never Cry  (1949)
TTITLE8=Poison Ivy  (1949)
TTITLE9=The Roses I Picked For Our Wedding  (1949)
TTITLE10=The Statue In The Bay  (1950)
TTITLE11=Teardrops From My Eyes  (1950)
TTITLE12=My Heart Cries For You  (1950)
TTITLE13=The Place Where We Worship  (1950)
TTITLE14=God Bess America  (1951)
TTITLE15=Am I A Pastime  (1952)
TTITLE16=Angels In The Sky  (1953)
TTITLE17=It Just Don't Seem Like Home  (1954)
TTITLE18=I'm Innocent  (1954)
TTITLE19=You're An Angel  (1954)
TTITLE20=God's In The Saddle Right There By My Side  (1954)
TTITLE21=Merry Christmas Waltz  (1951)  (1954)
TTITLE22=Two Cheaters In Love  (1955)
TTITLE23=I'm A Yankee Doodle Dandy  (?)
TTITLE24=Marchetta  (1946)
TTITLE25=I'm An Old Cow Hand  (?)
TTITLE26=Demonstration Record  (1940)
EXTD=
EXTT0=
EXTT1=
EXTT2=
EXTT3=
EXTT4=
EXTT5=
EXTT6=
EXTT7=
EXTT8=
EXTT9=
EXTT10=
EXTT11=
EXTT12=
EXTT13=
EXTT14=
EXTT15=
EXTT16=
EXTT17=
EXTT18=
EXTT19=
EXTT20=
EXTT21=
EXTT22=
EXTT23=
EXTT24=
EXTT25=
EXTT26=
PLAYORDER=
